<svg width="80" height="81" viewBox="0 0 80 81" fill="none" xmlns="http://www.w3.org/2000/svg">
<path d="M10.8335 17.1667C10.8335 14.7355 11.7993 12.4039 13.5184 10.6849C15.2374 8.96577 17.569 8 20.0002 8H53.3335C55.7646 8 58.0962 8.96577 59.8153 10.6849C61.5344 12.4039 62.5002 14.7355 62.5002 17.1667V35.5C62.5002 36.163 62.2368 36.7989 61.7679 37.2678C61.2991 37.7366 60.6632 38 60.0002 38C59.3371 38 58.7012 37.7366 58.2324 37.2678C57.7636 36.7989 57.5002 36.163 57.5002 35.5V17.1667C57.5002 14.8667 55.6335 13 53.3335 13H20.0002C17.7002 13 15.8335 14.8667 15.8335 17.1667V63.8333C15.8335 66.1333 17.7002 68 20.0002 68H45.0002C45.6632 68 46.2991 68.2634 46.7679 68.7322C47.2368 69.2011 47.5002 69.837 47.5002 70.5C47.5002 71.163 47.2368 71.7989 46.7679 72.2678C46.2991 72.7366 45.6632 73 45.0002 73H20.0002C17.569 73 15.2374 72.0342 13.5184 70.3151C11.7993 68.5961 10.8335 66.2645 10.8335 63.8333V17.1667Z" fill="black"/>
<path d="M60 44.667C60.663 44.667 61.2989 44.9304 61.7678 45.3992C62.2366 45.8681 62.5 46.504 62.5 47.167V48.5603C65.9233 48.687 69.1667 51.2103 69.1667 54.9437C69.1667 55.6067 68.9033 56.2426 68.4344 56.7114C67.9656 57.1803 67.3297 57.4437 66.6667 57.4437C66.0036 57.4437 65.3677 57.1803 64.8989 56.7114C64.4301 56.2426 64.1667 55.6067 64.1667 54.9437C64.1667 54.4703 63.6267 53.557 62.23 53.557H57.21C56.8116 53.5463 56.4225 53.6788 56.1133 53.9303C55.8867 54.1303 55.8333 54.3203 55.8333 54.4437C55.8282 54.6113 55.8485 54.7787 55.8933 54.9403C55.9375 54.973 55.9844 55.002 56.0333 55.027C56.1667 55.0937 56.3667 55.1737 56.6767 55.267L64.7367 57.6037C65.6567 57.877 66.8367 58.3303 67.7633 59.3137C68.7633 60.3803 69.1667 61.747 69.1667 63.2237C69.1667 66.7803 65.98 69.1103 62.79 69.1103H62.5V70.5003C62.5 71.1634 62.2366 71.7993 61.7678 72.2681C61.2989 72.7369 60.663 73.0003 60 73.0003C59.337 73.0003 58.7011 72.7369 58.2322 72.2681C57.7634 71.7993 57.5 71.1634 57.5 70.5003V69.107C54.0767 68.9803 50.8333 66.457 50.8333 62.7237C50.8333 62.0606 51.0967 61.4247 51.5656 60.9559C52.0344 60.487 52.6703 60.2237 53.3333 60.2237C53.9964 60.2237 54.6323 60.487 55.1011 60.9559C55.5699 61.4247 55.8333 62.0606 55.8333 62.7237C55.8333 63.197 56.3733 64.1103 57.77 64.1103H62.79C63.1884 64.121 63.5775 63.9886 63.8867 63.737C64.1133 63.537 64.1667 63.347 64.1667 63.2237C64.1718 63.056 64.1515 62.8886 64.1067 62.727C64.0625 62.6943 64.0156 62.6653 63.9667 62.6403C63.8333 62.5737 63.6333 62.4937 63.3233 62.4003L55.2633 60.0637C54.3433 59.7903 53.1633 59.337 52.2367 58.3537C51.2367 57.287 50.8333 55.9203 50.8333 54.4437C50.8333 50.887 54.02 48.557 57.21 48.557H57.5V47.167C57.5 46.504 57.7634 45.8681 58.2322 45.3992C58.7011 44.9304 59.337 44.667 60 44.667ZM20.8333 37.167C20.8333 36.504 21.0967 35.8681 21.5656 35.3992C22.0344 34.9304 22.6703 34.667 23.3333 34.667H25C25.663 34.667 26.2989 34.9304 26.7678 35.3992C27.2366 35.8681 27.5 36.504 27.5 37.167C27.5 37.83 27.2366 38.4659 26.7678 38.9348C26.2989 39.4036 25.663 39.667 25 39.667H23.3333C22.6703 39.667 22.0344 39.4036 21.5656 38.9348C21.0967 38.4659 20.8333 37.83 20.8333 37.167ZM30.8333 37.167C30.8333 36.504 31.0967 35.8681 31.5656 35.3992C32.0344 34.9304 32.6703 34.667 33.3333 34.667H50C50.663 34.667 51.2989 34.9304 51.7678 35.3992C52.2366 35.8681 52.5 36.504 52.5 37.167C52.5 37.83 52.2366 38.4659 51.7678 38.9348C51.2989 39.4036 50.663 39.667 50 39.667H33.3333C32.6703 39.667 32.0344 39.4036 31.5656 38.9348C31.0967 38.4659 30.8333 37.83 30.8333 37.167ZM20.8333 47.167C20.8333 46.504 21.0967 45.8681 21.5656 45.3992C22.0344 44.9304 22.6703 44.667 23.3333 44.667H25C25.663 44.667 26.2989 44.9304 26.7678 45.3992C27.2366 45.8681 27.5 46.504 27.5 47.167C27.5 47.83 27.2366 48.4659 26.7678 48.9348C26.2989 49.4036 25.663 49.667 25 49.667H23.3333C22.6703 49.667 22.0344 49.4036 21.5656 48.9348C21.0967 48.4659 20.8333 47.83 20.8333 47.167ZM30.8333 47.167C30.8333 46.504 31.0967 45.8681 31.5656 45.3992C32.0344 44.9304 32.6703 44.667 33.3333 44.667H45C45.663 44.667 46.2989 44.9304 46.7678 45.3992C47.2366 45.8681 47.5 46.504 47.5 47.167C47.5 47.83 47.2366 48.4659 46.7678 48.9348C46.2989 49.4036 45.663 49.667 45 49.667H33.3333C32.6703 49.667 32.0344 49.4036 31.5656 48.9348C31.0967 48.4659 30.8333 47.83 30.8333 47.167ZM20.8333 57.167C20.8333 56.504 21.0967 55.8681 21.5656 55.3992C22.0344 54.9304 22.6703 54.667 23.3333 54.667H25C25.663 54.667 26.2989 54.9304 26.7678 55.3992C27.2366 55.8681 27.5 56.504 27.5 57.167C27.5 57.83 27.2366 58.4659 26.7678 58.9348C26.2989 59.4036 25.663 59.667 25 59.667H23.3333C22.6703 59.667 22.0344 59.4036 21.5656 58.9348C21.0967 58.4659 20.8333 57.83 20.8333 57.167ZM30.8333 57.167C30.8333 56.504 31.0967 55.8681 31.5656 55.3992C32.0344 54.9304 32.6703 54.667 33.3333 54.667H40C40.663 54.667 41.2989 54.9304 41.7678 55.3992C42.2366 55.8681 42.5 56.504 42.5 57.167C42.5 57.83 42.2366 58.4659 41.7678 58.9348C41.2989 59.4036 40.663 59.667 40 59.667H33.3333C32.6703 59.667 32.0344 59.4036 31.5656 58.9348C31.0967 58.4659 30.8333 57.83 30.8333 57.167ZM20 22.167C20 20.6137 20 19.837 20.2533 19.2237C20.5924 18.4085 21.2409 17.7612 22.0567 17.4237C22.67 17.167 23.4467 17.167 25 17.167H48.3333C49.8867 17.167 50.6633 17.167 51.2767 17.4203C52.0918 17.7594 52.7391 18.4079 53.0767 19.2237C53.3333 19.837 53.3333 20.6137 53.3333 22.167C53.3333 23.7203 53.3333 24.497 53.08 25.1103C52.741 25.9255 52.0924 26.5728 51.2767 26.9103C50.6633 27.167 49.8867 27.167 48.3333 27.167H25C23.4467 27.167 22.67 27.167 22.0567 26.9137C21.2415 26.5746 20.5942 25.9261 20.2567 25.1103C20 24.497 20 23.7203 20 22.167Z" fill="black"/>
</svg>
