<svg width="101" height="100" viewBox="0 0 101 100" fill="none" xmlns="http://www.w3.org/2000/svg">
<path d="M63.4448 93.75H54.0698C52.4122 93.75 50.8225 93.0915 49.6504 91.9194C48.4783 90.7473 47.8198 89.1576 47.8198 87.5V71.875H54.0698V87.5H63.4448V71.875H69.6948V59.375C69.6948 58.5462 69.3656 57.7513 68.7795 57.1653C68.1935 56.5792 67.3986 56.25 66.5698 56.25H39.3198L33.0698 37.5H13.4448C12.616 37.5 11.8212 37.8292 11.2351 38.4153C10.6491 39.0014 10.3198 39.7962 10.3198 40.625V59.375H16.5698V87.5H29.0698V65.625H35.3198V87.5C35.3198 89.1576 34.6613 90.7473 33.4892 91.9194C32.3171 93.0915 30.7274 93.75 29.0698 93.75H16.5698C14.9122 93.75 13.3225 93.0915 12.1504 91.9194C10.9783 90.7473 10.3198 89.1576 10.3198 87.5V65.625C8.66222 65.625 7.07251 64.9665 5.90041 63.7944C4.7283 62.6223 4.06982 61.0326 4.06982 59.375V40.625C4.07231 38.1394 5.06082 35.7562 6.81844 33.9986C8.57606 32.241 10.9592 31.2525 13.4448 31.25H33.0698C34.3812 31.2501 35.6593 31.6627 36.7232 32.4294C37.7871 33.1961 38.5829 34.2779 38.9979 35.5219L43.8198 50H66.5698C69.0555 50.0025 71.4386 50.991 73.1962 52.7486C74.9538 54.5062 75.9423 56.8894 75.9448 59.375V71.875C75.9448 73.5326 75.2863 75.1223 74.1142 76.2944C72.9421 77.4665 71.3524 78.125 69.6948 78.125V87.5C69.6948 89.1576 69.0363 90.7473 67.8642 91.9194C66.6921 93.0915 65.1024 93.75 63.4448 93.75ZM88.4448 93.75H82.1948V59.375H91.5698V40.625C91.5698 39.7962 91.2406 39.0014 90.6545 38.4153C90.0685 37.8292 89.2736 37.5 88.4448 37.5H75.9448V31.25H88.4448C90.9305 31.2525 93.3136 32.241 95.0712 33.9986C96.8288 35.7562 97.8173 38.1394 97.8198 40.625V59.375C97.8198 61.0326 97.1613 62.6223 95.9892 63.7944C94.8171 64.9665 93.2274 65.625 91.5698 65.625H88.4448V93.75ZM22.8198 28.125C20.3476 28.125 17.9308 27.3919 15.8752 26.0184C13.8196 24.6449 12.2174 22.6926 11.2713 20.4085C10.3252 18.1245 10.0777 15.6111 10.56 13.1864C11.0423 10.7616 12.2328 8.53433 13.981 6.78617C15.7291 5.03801 17.9564 3.8475 20.3812 3.36519C22.806 2.88287 25.3193 3.13042 27.6034 4.07651C29.8874 5.02261 31.8397 6.62476 33.2132 8.68038C34.5867 10.736 35.3198 13.1527 35.3198 15.625C35.3157 18.9389 33.9974 22.116 31.6541 24.4593C29.3108 26.8026 26.1338 28.1209 22.8198 28.125ZM22.8198 9.37501C21.5837 9.37501 20.3753 9.74156 19.3475 10.4283C18.3197 11.1151 17.5186 12.0912 17.0456 13.2332C16.5725 14.3753 16.4488 15.6319 16.6899 16.8443C16.9311 18.0567 17.5263 19.1703 18.4004 20.0444C19.2745 20.9185 20.3881 21.5138 21.6005 21.7549C22.8129 21.9961 24.0696 21.8723 25.2116 21.3993C26.3536 20.9262 27.3298 20.1251 28.0165 19.0973C28.7033 18.0695 29.0698 16.8611 29.0698 15.625C29.0698 13.9674 28.4113 12.3777 27.2392 11.2056C26.0671 10.0335 24.4774 9.37501 22.8198 9.37501ZM79.0698 28.125C76.5976 28.125 74.1808 27.3919 72.1252 26.0184C70.0696 24.6449 68.4674 22.6926 67.5213 20.4085C66.5752 18.1245 66.3277 15.6111 66.81 13.1864C67.2923 10.7616 68.4828 8.53433 70.231 6.78617C71.9791 5.03801 74.2064 3.8475 76.6312 3.36519C79.056 2.88287 81.5693 3.13042 83.8534 4.07651C86.1374 5.02261 88.0897 6.62476 89.4632 8.68038C90.8367 10.736 91.5698 13.1527 91.5698 15.625C91.5657 18.9389 90.2474 22.116 87.9041 24.4593C85.5608 26.8026 82.3838 28.1209 79.0698 28.125ZM79.0698 9.37501C77.8337 9.37501 76.6253 9.74156 75.5975 10.4283C74.5697 11.1151 73.7686 12.0912 73.2956 13.2332C72.8225 14.3753 72.6988 15.6319 72.9399 16.8443C73.1811 18.0567 73.7763 19.1703 74.6504 20.0444C75.5245 20.9185 76.6381 21.5138 77.8505 21.7549C79.0629 21.9961 80.3196 21.8723 81.4616 21.3993C82.6036 20.9262 83.5798 20.1251 84.2665 19.0973C84.9533 18.0695 85.3198 16.8611 85.3198 15.625C85.3198 13.9674 84.6613 12.3777 83.4892 11.2056C82.3171 10.0335 80.7274 9.37501 79.0698 9.37501Z" fill="black"/>
<path d="M58.7573 46.875C56.5941 46.875 54.4794 46.2335 52.6808 45.0317C50.8821 43.8299 49.4802 42.1217 48.6524 40.1231C47.8246 38.1245 47.608 35.9254 48.03 33.8037C48.452 31.682 49.4937 29.7332 51.0233 28.2035C52.553 26.6739 54.5019 25.6322 56.6235 25.2102C58.7452 24.7881 60.9444 25.0047 62.9429 25.8326C64.9415 26.6604 66.6497 28.0623 67.8515 29.861C69.0534 31.6596 69.6948 33.7743 69.6948 35.9375C69.6915 38.8373 68.5381 41.6174 66.4877 43.6678C64.4372 45.7183 61.6571 46.8717 58.7573 46.875ZM58.7573 31.25C57.8302 31.25 56.924 31.5249 56.1531 32.04C55.3822 32.5551 54.7814 33.2871 54.4266 34.1437C54.0719 35.0002 53.979 35.9427 54.1599 36.852C54.3408 37.7613 54.7872 38.5965 55.4428 39.2521C56.0983 39.9076 56.9336 40.3541 57.8428 40.5349C58.7521 40.7158 59.6946 40.623 60.5512 40.2682C61.4077 39.9134 62.1398 39.3126 62.6548 38.5417C63.1699 37.7709 63.4448 36.8646 63.4448 35.9375C63.4448 34.6943 62.951 33.502 62.0719 32.6229C61.1928 31.7439 60.0005 31.25 58.7573 31.25Z" fill="black"/>
</svg>
