<svg width="48" height="49" viewBox="0 0 48 49" fill="none" xmlns="http://www.w3.org/2000/svg">
<path d="M12 44.5C10.3333 44.5 8.91667 43.9167 7.75 42.75C6.58333 41.5833 6 40.1667 6 38.5V34.5C6 33.9333 6.192 33.4587 6.576 33.076C6.96 32.6933 7.43467 32.5013 8 32.5H12V8.5C12 7.4 12.392 6.45867 13.176 5.676C13.96 4.89333 14.9013 4.50133 16 4.5H38C39.1 4.5 40.042 4.892 40.826 5.676C41.61 6.46 42.0013 7.40133 42 8.5V20.5C42 21.0667 41.808 21.542 41.424 21.926C41.04 22.31 40.5653 22.5013 40 22.5C39.4347 22.4987 38.96 22.3067 38.576 21.924C38.192 21.5413 38 21.0667 38 20.5V8.5H16V32.5H23.95C24.7167 32.5 25.242 32.842 25.526 33.526C25.81 34.21 25.6847 34.818 25.15 35.35C24.7833 35.7167 24.5 36.142 24.3 36.626C24.1 37.11 24 37.618 24 38.15V42.5C24 43.0667 23.808 43.542 23.424 43.926C23.04 44.31 22.5653 44.5013 22 44.5H12ZM28 42.5V39.2C28 38.9333 28.05 38.6667 28.15 38.4C28.25 38.1333 28.4 37.9167 28.6 37.75L39.05 27.35C39.35 27.05 39.6833 26.8333 40.05 26.7C40.4167 26.5667 40.7833 26.5 41.15 26.5C41.55 26.5 41.9333 26.5753 42.3 26.726C42.6667 26.8767 43 27.1013 43.3 27.4L45.15 29.25C45.4167 29.55 45.6253 29.8833 45.776 30.25C45.9267 30.6167 46.0013 30.9833 46 31.35C45.9987 31.7167 45.932 32.092 45.8 32.476C45.668 32.86 45.4513 33.2013 45.15 33.5L34.75 43.9C34.5833 44.0667 34.3667 44.2087 34.1 44.326C33.8333 44.4433 33.5667 44.5013 33.3 44.5H30C29.4333 44.5 28.9587 44.308 28.576 43.924C28.1933 43.54 28.0013 43.0653 28 42.5ZM41.15 33.3L43 31.35L41.15 29.5L39.25 31.4L41.15 33.3ZM20 20.5H34C34.5667 20.5 35.042 20.692 35.426 21.076C35.81 21.46 36.0013 21.9347 36 22.5C35.9987 23.0653 35.8067 23.5407 35.424 23.926C35.0413 24.3113 34.5667 24.5027 34 24.5H20C19.4333 24.5 18.9587 24.308 18.576 23.924C18.1933 23.54 18.0013 23.0653 18 22.5C17.9987 21.9347 18.1907 21.46 18.576 21.076C18.9613 20.692 19.436 20.5 20 20.5ZM20 14.5H34C34.5667 14.5 35.042 14.692 35.426 15.076C35.81 15.46 36.0013 15.9347 36 16.5C35.9987 17.0653 35.8067 17.5407 35.424 17.926C35.0413 18.3113 34.5667 18.5027 34 18.5H20C19.4333 18.5 18.9587 18.308 18.576 17.924C18.1933 17.54 18.0013 17.0653 18 16.5C17.9987 15.9347 18.1907 15.46 18.576 15.076C18.9613 14.692 19.436 14.5 20 14.5Z" fill="black"/>
</svg>
