<svg width="65" height="64" viewBox="0 0 65 64" fill="none" xmlns="http://www.w3.org/2000/svg">
<path d="M56.9046 13.5397C54.0012 10.6364 50.0646 9.00376 45.9587 9.00001C41.8528 8.99626 37.9132 10.6218 35.0046 13.5197L32.4446 15.9847L29.8846 13.5197C26.9718 10.6391 23.0372 9.02869 18.9406 9.04051C14.8441 9.05234 10.9188 10.6854 8.0227 13.5828C5.12664 16.4802 3.49535 20.4062 3.4854 24.5028C3.47544 28.5994 5.08763 32.5333 7.96958 35.4447L30.3071 58.1047C30.5862 58.3882 30.919 58.6133 31.2859 58.7669C31.6529 58.9206 32.0468 58.9997 32.4446 58.9997C32.8424 58.9997 33.2363 58.9206 33.6032 58.7669C33.9702 58.6133 34.3029 58.3882 34.5821 58.1047L56.9046 35.4597C59.8113 32.5529 61.4443 28.6105 61.4443 24.4997C61.4443 20.3889 59.8113 16.4465 56.9046 13.5397ZM52.6546 31.2322L32.4521 51.7322L12.2346 31.2322C11.3494 30.3507 10.6468 29.3033 10.167 28.1499C9.68712 26.9965 9.43946 25.7598 9.43817 24.5106C9.43687 23.2614 9.68197 22.0242 10.1594 20.8698C10.6369 19.7155 11.3373 18.6666 12.2206 17.7833C13.104 16.8999 14.1528 16.1995 15.3072 15.7221C16.4616 15.2446 17.6988 14.9995 18.948 15.0008C20.1972 15.0021 21.4339 15.2497 22.5873 15.7296C23.7407 16.2094 24.7881 16.9121 25.6696 17.7972L25.7096 17.8372L28.1271 20.1647L26.3771 21.8547C26.0897 22.1311 25.8603 22.4621 25.7023 22.8282C25.5443 23.1944 25.4609 23.5883 25.457 23.987C25.453 24.3858 25.5286 24.7813 25.6793 25.1505C25.83 25.5197 26.0527 25.8551 26.3346 26.1372L32.1946 31.9997L30.3146 33.8772C29.751 34.4408 29.4344 35.2052 29.4344 36.0022C29.4344 36.7992 29.751 37.5636 30.3146 38.1272C30.8782 38.6908 31.6426 39.0074 32.4396 39.0074C33.2366 39.0074 34.001 38.6908 34.5646 38.1272L38.5646 34.1272C38.8443 33.8485 39.0662 33.5173 39.2176 33.1527C39.369 32.788 39.4469 32.397 39.4469 32.0022C39.4469 31.6074 39.369 31.2164 39.2176 30.8518C39.0662 30.4871 38.8443 30.1559 38.5646 29.8772L32.7271 24.0397L39.1946 17.8222L39.2346 17.7822C40.1172 16.8985 41.1653 16.1975 42.3191 15.7193C43.4729 15.2412 44.7097 14.9952 45.9586 14.9955C47.2076 14.9958 48.4442 15.2424 49.5978 15.7211C50.7513 16.1999 51.7992 16.9014 52.6813 17.7855C53.5635 18.6696 54.2627 19.719 54.7388 20.8736C55.215 22.0283 55.4588 23.2654 55.4563 24.5144C55.4538 25.7633 55.2051 26.9995 54.7243 28.1523C54.2436 29.305 53.5402 30.3516 52.6546 31.2322Z" fill="black"/>
</svg>
