<svg width="49" height="48" viewBox="0 0 49 48" fill="none" xmlns="http://www.w3.org/2000/svg">
<path d="M6.3335 14V10H10.3335V8C10.3335 6.93913 10.7549 5.92172 11.5051 5.17157C12.2552 4.42143 13.2726 4 14.3335 4H26.3335V18L31.3335 15L36.3335 18V4H38.3335C40.4335 4 42.3335 5.9 42.3335 8V40C42.3335 42.1 40.4335 44 38.3335 44H14.3335C12.2335 44 10.3335 42.1 10.3335 40V38H6.3335V34H10.3335V26H6.3335V22H10.3335V14H6.3335ZM14.3335 22H10.3335V26H14.3335V22ZM14.3335 14V10H10.3335V14H14.3335ZM14.3335 38V34H10.3335V38H14.3335Z" fill="black"/>
</svg>
