<svg width="101" height="100" viewBox="0 0 101 100" fill="none" xmlns="http://www.w3.org/2000/svg">
<path d="M82.5832 53.7497L58.8332 77.4997H49.2498V67.9163L72.9998 44.1663L82.5832 53.7497ZM96.7498 50.4163C96.7498 51.6663 95.4998 52.9163 94.2498 54.1663L83.8332 64.583L80.0832 60.833L90.9165 49.9997L88.4165 47.4997L85.4998 50.4163L75.9165 40.833L85.0832 32.083C85.9165 31.2497 87.5832 31.2497 88.8332 32.083L94.6665 37.9163C95.4998 38.7497 95.4998 40.4163 94.6665 41.6663C93.8332 42.4997 92.9998 43.333 92.9998 44.1663C92.9998 44.9997 93.8332 45.833 94.6665 46.6663C95.9165 47.9163 97.1665 49.1663 96.7498 50.4163ZM12.9998 83.333V16.6663H42.1665V37.4997H62.9998V43.7497L71.3332 35.4163V33.333L46.3332 8.33301H12.9998C8.4165 8.33301 4.6665 12.083 4.6665 16.6663V83.333C4.6665 87.9163 8.4165 91.6663 12.9998 91.6663H62.9998C67.5832 91.6663 71.3332 87.9163 71.3332 83.333H12.9998ZM46.3332 71.2497C45.4998 71.2497 44.6665 71.6663 44.2498 71.6663L42.1665 62.4997H35.9165L27.1665 69.583L29.6665 58.333H23.4165L19.2498 79.1663H25.4998L37.5832 68.333L40.0832 77.9163H44.2498L46.3332 77.4997V71.2497Z" fill="black"/>
</svg>
