<svg width="101" height="100" viewBox="0 0 101 100" fill="none" xmlns="http://www.w3.org/2000/svg">
<path d="M75.5002 87.4997C76.0557 87.4997 76.5418 87.2913 76.9585 86.8747C77.3752 86.458 77.5835 85.9719 77.5835 85.4163C77.5835 84.8608 77.3752 84.3747 76.9585 83.958C76.5418 83.5413 76.0557 83.333 75.5002 83.333C74.9446 83.333 74.4585 83.5413 74.0418 83.958C73.6252 84.3747 73.4168 84.8608 73.4168 85.4163C73.4168 85.9719 73.6252 86.458 74.0418 86.8747C74.4585 87.2913 74.9446 87.4997 75.5002 87.4997ZM73.4168 79.1663H77.5835V62.4997H73.4168V79.1663ZM17.1668 87.4997C14.8752 87.4997 12.9141 86.6844 11.2835 85.0538C9.65294 83.4233 8.83627 81.4608 8.8335 79.1663V33.333C8.8335 31.0413 9.65016 29.0802 11.2835 27.4497C12.9168 25.8191 14.8779 25.0025 17.1668 24.9997H33.8335V16.6663C33.8335 14.3747 34.6502 12.4136 36.2835 10.783C37.9168 9.15245 39.8779 8.33579 42.1668 8.33301H58.8335C61.1252 8.33301 63.0877 9.14967 64.721 10.783C66.3543 12.4163 67.1696 14.3775 67.1668 16.6663V24.9997H83.8335C86.1252 24.9997 88.0877 25.8163 89.721 27.4497C91.3543 29.083 92.1696 31.0441 92.1668 33.333V51.1455C90.9168 50.2427 89.5974 49.4622 88.2085 48.8038C86.8196 48.1455 85.3613 47.5719 83.8335 47.083V33.333H17.1668V79.1663H46.646C46.8543 80.6247 47.1668 82.0483 47.5835 83.4372C48.0002 84.8261 48.521 86.1802 49.146 87.4997H17.1668ZM42.1668 24.9997H58.8335V16.6663H42.1668V24.9997ZM75.5002 95.833C69.7363 95.833 64.8238 93.8011 60.7627 89.7372C56.7016 85.6733 54.6696 80.7608 54.6668 74.9997C54.664 69.2386 56.696 64.3261 60.7627 60.2622C64.8293 56.1983 69.7418 54.1663 75.5002 54.1663C81.2585 54.1663 86.1724 56.1983 90.2418 60.2622C94.3113 64.3261 96.3418 69.2386 96.3335 74.9997C96.3252 80.7608 94.2932 85.6747 90.2377 89.7413C86.1821 93.808 81.2696 95.8386 75.5002 95.833Z" fill="black"/>
</svg>
