<svg width="117" height="19" viewBox="0 0 117 19" fill="none" xmlns="http://www.w3.org/2000/svg">
<g clip-path="url(#clip0_8221_1995)">
<path d="M9.5157 0.612343C9.85945 -0.204115 11.0302 -0.204114 11.3739 0.612346L13.4027 5.43123C13.5477 5.77543 13.8754 6.01061 14.2515 6.0404L19.5175 6.45748C20.4097 6.52814 20.7715 7.62813 20.0917 8.2034L16.0796 11.5987C15.793 11.8412 15.6678 12.2218 15.7554 12.5843L16.9812 17.661C17.1888 18.5211 16.2417 19.201 15.4778 18.7401L10.9694 16.0196C10.6473 15.8252 10.2423 15.8252 9.9203 16.0196L5.41181 18.7401C4.64794 19.201 3.70078 18.5211 3.90846 17.661L5.13425 12.5843C5.2218 12.2218 5.09665 11.8412 4.81008 11.5987L0.797886 8.2034C0.118106 7.62813 0.479892 6.52814 1.37212 6.45748L6.63818 6.0404C7.01432 6.01061 7.34198 5.77543 7.48689 5.43123L9.5157 0.612343Z" fill="black"/>
<path d="M33.5157 0.612343C33.8594 -0.204115 35.0302 -0.204114 35.3739 0.612346L37.4027 5.43123C37.5477 5.77543 37.8754 6.01061 38.2515 6.0404L43.5175 6.45748C44.4097 6.52814 44.7715 7.62813 44.0917 8.2034L40.0796 11.5987C39.793 11.8412 39.6678 12.2218 39.7554 12.5843L40.9812 17.661C41.1888 18.5211 40.2417 19.201 39.4778 18.7401L34.9694 16.0196C34.6473 15.8252 34.2423 15.8252 33.9203 16.0196L29.4118 18.7401C28.6479 19.201 27.7008 18.5211 27.9085 17.661L29.1342 12.5843C29.2218 12.2218 29.0966 11.8412 28.8101 11.5987L24.7979 8.2034C24.1181 7.62813 24.4799 6.52814 25.3721 6.45748L30.6382 6.0404C31.0143 6.01061 31.342 5.77543 31.4869 5.43123L33.5157 0.612343Z" fill="black"/>
<path d="M57.5157 0.612343C57.8594 -0.204115 59.0302 -0.204114 59.3739 0.612346L61.4027 5.43123C61.5477 5.77543 61.8754 6.01061 62.2515 6.0404L67.5175 6.45748C68.4097 6.52814 68.7715 7.62813 68.0917 8.2034L64.0796 11.5987C63.793 11.8412 63.6678 12.2218 63.7554 12.5843L64.9812 17.661C65.1888 18.5211 64.2417 19.201 63.4778 18.7401L58.9694 16.0196C58.6473 15.8252 58.2423 15.8252 57.9203 16.0196L53.4118 18.7401C52.6479 19.201 51.7008 18.5211 51.9085 17.661L53.1342 12.5843C53.2218 12.2218 53.0966 11.8412 52.8101 11.5987L48.7979 8.2034C48.1181 7.62813 48.4799 6.52814 49.3721 6.45748L54.6382 6.0404C55.0143 6.01061 55.342 5.77543 55.4869 5.43123L57.5157 0.612343Z" fill="black"/>
<path d="M81.5157 0.612343C81.8594 -0.204115 83.0302 -0.204114 83.3739 0.612346L85.4027 5.43123C85.5477 5.77543 85.8754 6.01061 86.2515 6.0404L91.5175 6.45748C92.4097 6.52814 92.7715 7.62813 92.0917 8.2034L88.0796 11.5987C87.793 11.8412 87.6678 12.2218 87.7554 12.5843L88.9812 17.661C89.1888 18.5211 88.2417 19.201 87.4778 18.7401L82.9694 16.0196C82.6473 15.8252 82.2423 15.8252 81.9203 16.0196L77.4118 18.7401C76.6479 19.201 75.7008 18.5211 75.9085 17.661L77.1342 12.5843C77.2218 12.2218 77.0966 11.8412 76.8101 11.5987L72.7979 8.2034C72.1181 7.62813 72.4799 6.52814 73.3721 6.45748L78.6382 6.0404C79.0143 6.01061 79.342 5.77543 79.4869 5.43123L81.5157 0.612343Z" fill="black"/>
<path d="M105.516 0.612343C105.859 -0.204115 107.03 -0.204114 107.374 0.612346L109.403 5.43123C109.548 5.77543 109.875 6.01061 110.251 6.0404L115.517 6.45748C116.41 6.52814 116.771 7.62813 116.092 8.2034L112.08 11.5987C111.793 11.8412 111.668 12.2218 111.755 12.5843L112.981 17.661C113.189 18.5211 112.242 19.201 111.478 18.7401L106.969 16.0196C106.647 15.8252 106.242 15.8252 105.92 16.0196L101.412 18.7401C100.648 19.201 99.7008 18.5211 99.9085 17.661L101.134 12.5843C101.222 12.2218 101.097 11.8412 100.81 11.5987L96.7979 8.2034C96.1181 7.62813 96.4799 6.52814 97.3721 6.45748L102.638 6.0404C103.014 6.01061 103.342 5.77543 103.487 5.43123L105.516 0.612343Z" fill="black"/>
</g>
<defs>
<clipPath id="clip0_8221_1995">
<rect width="116" height="18.8889" fill="white" transform="translate(0.444824)"/>
</clipPath>
</defs>
</svg>
