<svg width="80" height="81" viewBox="0 0 80 81" fill="none" xmlns="http://www.w3.org/2000/svg">
<path d="M28 70.5C22.9444 70.5 18.68 68.7644 15.2067 65.2933C11.7333 61.8222 9.99778 57.5578 10 52.5C10 50.3889 10.3611 48.3333 11.0833 46.3333C11.8056 44.3333 12.8333 42.5278 14.1667 40.9167L26 26.6667L17.9167 10.5H62.0833L54 26.6667L65.8333 40.9167C67.1667 42.5278 68.1944 44.3333 68.9167 46.3333C69.6389 48.3333 70 50.3889 70 52.5C70 57.5556 68.25 61.82 64.75 65.2933C61.25 68.7667 57 70.5022 52 70.5H28ZM40 53.8333C38.1667 53.8333 36.5978 53.1811 35.2933 51.8767C33.9889 50.5722 33.3356 49.0022 33.3333 47.1667C33.3311 45.3311 33.9844 43.7622 35.2933 42.46C36.6022 41.1578 38.1711 40.5044 40 40.5C41.8289 40.4956 43.3989 41.1489 44.71 42.46C46.0211 43.7711 46.6733 45.34 46.6667 47.1667C46.66 48.9933 46.0078 50.5633 44.71 51.8767C43.4122 53.19 41.8422 53.8422 40 53.8333ZM32.0833 23.8333H47.9167L51.25 17.1667H28.75L32.0833 23.8333ZM28 63.8333H52C55.1667 63.8333 57.8478 62.7367 60.0433 60.5433C62.2389 58.35 63.3356 55.6689 63.3333 52.5C63.3333 51.1667 63.0967 49.8756 62.6233 48.6267C62.15 47.3778 61.4978 46.2522 60.6667 45.25L48.4167 30.5H31.6667L19.3333 45.1667C18.5 46.1667 17.8478 47.3056 17.3767 48.5833C16.9056 49.8611 16.6689 51.1667 16.6667 52.5C16.6667 55.6667 17.7644 58.3478 19.96 60.5433C22.1556 62.7389 24.8356 63.8356 28 63.8333Z" fill="black"/>
</svg>
