<svg width="101" height="100" viewBox="0 0 101 100" fill="none" xmlns="http://www.w3.org/2000/svg">
<path d="M13.4448 8.33301V24.9997C13.4448 25.5522 13.6643 26.0821 14.055 26.4728C14.4457 26.8635 14.9756 27.083 15.5282 27.083H40.5282C41.0807 27.083 41.6106 26.8635 42.0013 26.4728C42.392 26.0821 42.6115 25.5522 42.6115 24.9997V8.33301M13.4448 14.583H42.6115M59.2782 45.833H13.4448V91.6663H59.2782M34.2782 91.6663V27.083M21.7782 45.833V27.083M28.0282 8.33301V14.583M57.1948 27.083V33.333M73.8615 27.083V33.333M90.5282 27.083V33.333" stroke="black" stroke-width="8.33333" stroke-linecap="round" stroke-linejoin="round"/>
<path d="M90.5282 91.6663V33.333H57.1948V91.6663H90.5282Z" stroke="black" stroke-width="8.33333" stroke-linecap="round" stroke-linejoin="round"/>
<path d="M73.8617 70.833V91.6663M65.5283 91.6663H82.195" stroke="black" stroke-width="8.33333" stroke-linecap="round"/>
</svg>
