<svg width="101" height="100" viewBox="0 0 101 100" fill="none" xmlns="http://www.w3.org/2000/svg">
<g clip-path="url(#clip0_8290_1325)">
<path d="M55.0199 4.6875V12.5H61.1762C63.0762 12.5 64.9449 13 66.5949 13.9437L74.6574 18.5438C74.8991 18.6812 75.1574 18.75 75.4324 18.75H89.3949C90.6381 18.75 91.8304 19.2439 92.7095 20.1229C93.5886 21.002 94.0824 22.1943 94.0824 23.4375C94.0824 24.6807 93.5886 25.873 92.7095 26.7521C91.8304 27.6311 90.6381 28.125 89.3949 28.125H86.7262L99.9199 57.45C100.31 58.3176 100.427 59.2832 100.255 60.2187C100.083 61.1542 99.6303 62.0152 98.9574 62.6875L95.6449 59.375L98.9512 62.6938L98.9449 62.7062L98.9324 62.7188L98.8949 62.7563L98.8574 62.7875L98.7949 62.85L98.5137 63.1C97.1928 64.2042 95.7637 65.1417 94.2262 65.9125C91.3074 67.375 87.0824 68.75 81.5824 68.75C77.2044 68.8012 72.8749 67.8296 68.9387 65.9125C67.4042 65.1463 65.9651 64.2023 64.6512 63.1L64.3699 62.85L64.2699 62.7563L64.2324 62.7188L64.2074 62.6938V62.6875C63.5346 62.0152 63.0821 61.1542 62.9102 60.2187C62.7383 59.2832 62.855 58.3176 63.2449 57.45L76.4449 28.125H75.4324C73.5262 28.125 71.6574 27.6313 70.0074 26.6812L61.9449 22.0812C61.7089 21.9462 61.4418 21.8752 61.1699 21.875H55.0199V81.25H70.6449C71.8881 81.25 73.0804 81.7439 73.9595 82.6229C74.8386 83.502 75.3324 84.6943 75.3324 85.9375C75.3324 87.1807 74.8386 88.373 73.9595 89.2521C73.0804 90.1311 71.8881 90.625 70.6449 90.625H30.0199C28.7767 90.625 27.5844 90.1311 26.7054 89.2521C25.8263 88.373 25.3324 87.1807 25.3324 85.9375C25.3324 84.6943 25.8263 83.502 26.7054 82.6229C27.5844 81.7439 28.7767 81.25 30.0199 81.25H45.6449V21.875H39.4949C39.223 21.8752 38.9559 21.9462 38.7199 22.0812L30.6637 26.6875C29.0074 27.625 27.1387 28.125 25.2324 28.125H24.2199L37.4199 57.45C37.8098 58.3176 37.9265 59.2832 37.7546 60.2187C37.5827 61.1542 37.1303 62.0152 36.4574 62.6875L33.1449 59.375L36.4512 62.6938L36.4449 62.7062L36.4324 62.7188L36.3949 62.7563L36.2949 62.85L36.0137 63.1C34.6928 64.2042 33.2637 65.1417 31.7262 65.9125C28.8074 67.375 24.5824 68.75 19.0824 68.75C14.7044 68.8012 10.3749 67.8296 6.43867 65.9125C4.90419 65.1463 3.46514 64.2023 2.15117 63.1L1.86992 62.85L1.76992 62.7563L1.73242 62.7188L1.70742 62.6938V62.6875C1.03456 62.0152 0.582128 61.1542 0.410213 60.2187C0.238299 59.2832 0.355037 58.3176 0.744924 57.45L13.9449 28.125H11.2699C10.0267 28.125 8.83444 27.6311 7.95536 26.7521C7.07628 25.873 6.58242 24.6807 6.58242 23.4375C6.58242 22.1943 7.07628 21.002 7.95536 20.1229C8.83444 19.2439 10.0267 18.75 11.2699 18.75H25.2324C25.5064 18.7509 25.7758 18.6798 26.0137 18.5438L34.0637 13.9375C35.7199 13 37.5887 12.5 39.4949 12.5H45.6449V4.6875C45.6449 3.4443 46.1388 2.25201 47.0179 1.37294C47.8969 0.49386 49.0892 0 50.3324 0C51.5756 0 52.7679 0.49386 53.647 1.37294C54.5261 2.25201 55.0199 3.4443 55.0199 4.6875ZM73.4262 57.6688C75.2074 58.5125 77.9137 59.375 81.5824 59.375C85.2512 59.375 87.9574 58.5125 89.7387 57.6688L81.5824 39.5438L73.4262 57.6688ZM10.9262 57.6688C12.7074 58.5125 15.4137 59.375 19.0824 59.375C22.7512 59.375 25.4574 58.5125 27.2387 57.6688L19.0824 39.5438L10.9262 57.6688Z" fill="black"/>
</g>
<defs>
<clipPath id="clip0_8290_1325">
<rect width="100" height="100" fill="white" transform="translate(0.333008)"/>
</clipPath>
</defs>
</svg>
