<svg width="48" height="48" viewBox="0 0 48 48" fill="none" xmlns="http://www.w3.org/2000/svg">
<g clip-path="url(#clip0_8261_1525)">
<path fill-rule="evenodd" clip-rule="evenodd" d="M26.1478 0.944762C25.8683 0.658106 25.5342 0.430293 25.1653 0.274745C24.7964 0.119197 24.4001 0.0390625 23.9998 0.0390625C23.5994 0.0390625 23.2031 0.119197 22.8342 0.274745C22.4653 0.430293 22.1312 0.658106 21.8518 0.944762L19.9378 2.90976C19.561 3.29683 19.0868 3.57501 18.5651 3.71493C18.0434 3.85486 17.4936 3.85135 16.9738 3.70476L14.3338 2.95776C13.9482 2.84937 13.5449 2.81927 13.1475 2.86924C12.7501 2.91921 12.3668 3.04823 12.0201 3.24871C11.6734 3.44918 11.3704 3.71704 11.1288 4.0365C10.8873 4.35596 10.7122 4.72054 10.6138 5.10876L9.93576 7.76676C9.80284 8.29001 9.53118 8.76769 9.14944 9.14944C8.76769 9.53118 8.29001 9.80284 7.76676 9.93576L5.10876 10.6108C4.72054 10.7092 4.35596 10.8843 4.0365 11.1258C3.71704 11.3674 3.44918 11.6704 3.24871 12.0171C3.04823 12.3638 2.91921 12.7471 2.86924 13.1445C2.81927 13.5419 2.84937 13.9452 2.95776 14.3308L3.70476 16.9738C3.85077 17.4932 3.85398 18.0424 3.71407 18.5635C3.57416 19.0846 3.2963 19.5583 2.90976 19.9348L0.944762 21.8518C0.658106 22.1312 0.430293 22.4653 0.274745 22.8342C0.119197 23.2031 0.0390625 23.5994 0.0390625 23.9998C0.0390625 24.4001 0.119197 24.7964 0.274745 25.1653C0.430293 25.5342 0.658106 25.8683 0.944762 26.1478L2.90976 28.0648C3.2963 28.4412 3.57416 28.9149 3.71407 29.436C3.85398 29.9571 3.85077 30.5063 3.70476 31.0258L2.95776 33.6658C2.84937 34.0513 2.81927 34.4546 2.86924 34.852C2.91921 35.2494 3.04823 35.6327 3.24871 35.9794C3.44918 36.3261 3.71704 36.6292 4.0365 36.8707C4.35596 37.1122 4.72054 37.2874 5.10876 37.3858L7.76676 38.0638C8.29001 38.1967 8.76769 38.4683 9.14944 38.8501C9.53118 39.2318 9.80284 39.7095 9.93576 40.2328L10.6108 42.8908C10.7095 43.2787 10.8848 43.643 11.1265 43.9621C11.3682 44.2812 11.6713 44.5487 12.018 44.7489C12.3646 44.9491 12.7479 45.0779 13.1451 45.1276C13.5423 45.1774 13.9454 45.1472 14.3308 45.0388L16.9738 44.2948C17.4936 44.1482 18.0434 44.1447 18.5651 44.2846C19.0868 44.4245 19.561 44.7027 19.9378 45.0898L21.8518 47.0548C22.1312 47.3414 22.4653 47.5692 22.8342 47.7248C23.2031 47.8803 23.5994 47.9605 23.9998 47.9605C24.4001 47.9605 24.7964 47.8803 25.1653 47.7248C25.5342 47.5692 25.8683 47.3414 26.1478 47.0548L28.0648 45.0898C28.4412 44.7032 28.9149 44.4254 29.436 44.2854C29.9571 44.1455 30.5063 44.1488 31.0258 44.2948L33.6658 45.0388C34.0511 45.1472 34.4543 45.1774 34.8515 45.1276C35.2487 45.0779 35.6319 44.9491 35.9785 44.7489C36.3252 44.5487 36.6283 44.2812 36.87 43.9621C37.1117 43.643 37.287 43.2787 37.3858 42.8908L38.0638 40.2328C38.1967 39.7095 38.4683 39.2318 38.8501 38.8501C39.2318 38.4683 39.7095 38.1967 40.2328 38.0638L42.8908 37.3888C43.2787 37.29 43.643 37.1147 43.9621 36.873C44.2812 36.6313 44.5487 36.3282 44.7489 35.9816C44.9491 35.6349 45.0779 35.2517 45.1276 34.8545C45.1774 34.4572 45.1472 34.0541 45.0388 33.6688L44.2948 31.0258C44.1482 30.5059 44.1447 29.9561 44.2846 29.4344C44.4245 28.9127 44.7027 28.4385 45.0898 28.0618L47.0548 26.1478C47.3414 25.8683 47.5692 25.5342 47.7248 25.1653C47.8803 24.7964 47.9605 24.4001 47.9605 23.9998C47.9605 23.5994 47.8803 23.2031 47.7248 22.8342C47.5692 22.4653 47.3414 22.1312 47.0548 21.8518L45.0898 19.9378C44.7027 19.561 44.4245 19.0868 44.2846 18.5651C44.1447 18.0434 44.1482 17.4936 44.2948 16.9738L45.0388 14.3338C45.1472 13.9484 45.1774 13.5453 45.1276 13.1481C45.0779 12.7509 44.9491 12.3676 44.7489 12.021C44.5487 11.6743 44.2812 11.3712 43.9621 11.1295C43.643 10.8878 43.2787 10.7125 42.8908 10.6138L40.2328 9.93576C39.7095 9.80284 39.2318 9.53118 38.8501 9.14944C38.4683 8.76769 38.1967 8.29001 38.0638 7.76676L37.3888 5.10876C37.2904 4.72054 37.1152 4.35596 36.8737 4.0365C36.6322 3.71704 36.3291 3.44918 35.9824 3.24871C35.6357 3.04823 35.2524 2.91921 34.855 2.86924C34.4576 2.81927 34.0543 2.84937 33.6688 2.95776L31.0258 3.70476C30.5059 3.85135 29.9561 3.85486 29.4344 3.71493C28.9127 3.57501 28.4385 3.29683 28.0618 2.90976L26.1478 0.944762ZM20.9998 11.9998H26.9998V35.9998H20.9998V17.9998H17.9998V14.9998L20.9998 11.9998Z" fill="black"/>
</g>
<defs>
<clipPath id="clip0_8261_1525">
<rect width="48" height="48" fill="white"/>
</clipPath>
</defs>
</svg>
