<svg width="65" height="64" viewBox="0 0 65 64" fill="none" xmlns="http://www.w3.org/2000/svg">
<path d="M49.395 15.0502C48.0861 13.7411 46.312 13.0038 44.4609 12.9996C42.6097 12.9954 40.8323 13.7246 39.5175 15.0277L36.615 18.0702C36.3462 18.3672 36.0206 18.6074 35.6575 18.7765C35.2944 18.9457 34.901 19.0404 34.5007 19.0551C34.1004 19.0698 33.7012 19.0042 33.3266 18.8621C32.9521 18.72 32.6098 18.5044 32.3199 18.2279C32.0301 17.9514 31.7985 17.6196 31.6389 17.2522C31.4794 16.8847 31.395 16.4891 31.3908 16.0885C31.3866 15.6879 31.4627 15.2906 31.6145 14.9199C31.7664 14.5492 31.991 14.2127 32.275 13.9302L35.195 10.8577L35.245 10.8077C37.683 8.36966 40.9896 7 44.4375 7C47.8853 7 51.192 8.36966 53.63 10.8077C56.068 13.2457 57.4376 16.5523 57.4376 20.0002C57.4376 23.448 56.068 26.7547 53.63 29.1927L53.58 29.2427L50.5075 32.1702C49.9277 32.6949 49.1659 32.9725 48.3844 32.9438C47.6029 32.9151 46.8635 32.5824 46.3237 32.0165C45.7839 31.4507 45.4864 30.6964 45.4946 29.9144C45.5028 29.1325 45.816 28.3846 46.3675 27.8302L49.41 24.9277C50.714 23.6138 51.4446 21.8369 51.4418 19.9858C51.439 18.1347 50.703 16.36 49.395 15.0502ZM28.275 45.9302L25.3725 48.9727C24.0597 50.2855 22.2791 51.023 20.4225 51.023C18.5659 51.023 16.7853 50.2855 15.4725 48.9727C14.1597 47.6598 13.4221 45.8793 13.4221 44.0227C13.4221 42.166 14.1597 40.3855 15.4725 39.0727L18.515 36.1702C19.0665 35.6157 19.3797 34.8678 19.3878 34.0859C19.396 33.3039 19.0985 32.5496 18.5588 31.9838C18.019 31.4179 17.2796 31.0852 16.4981 31.0565C15.7166 31.0278 14.9548 31.3054 14.375 31.8302L11.3025 34.7502L11.2525 34.8002C8.81448 37.2382 7.44482 40.5448 7.44482 43.9927C7.44482 47.4405 8.81448 50.7472 11.2525 53.1852C13.6905 55.6232 16.9971 56.9928 20.445 56.9928C23.8928 56.9928 27.1995 55.6232 29.6375 53.1852L29.6875 53.1352L32.615 50.0627C32.899 49.7802 33.1236 49.4436 33.2754 49.0729C33.4273 48.7022 33.5034 48.3049 33.4992 47.9043C33.495 47.5037 33.4106 47.1081 33.251 46.7406C33.0915 46.3732 32.8599 46.0414 32.57 45.7649C32.2802 45.4884 31.9379 45.2728 31.5633 45.1307C31.1888 44.9886 30.7896 44.923 30.3892 44.9377C29.9889 44.9524 29.5956 45.0471 29.2325 45.2163C28.8693 45.3855 28.5438 45.6256 28.275 45.9227V45.9302ZM54.445 37.0002H48.445C47.6493 37.0002 46.8863 37.3162 46.3237 37.8788C45.7611 38.4414 45.445 39.2045 45.445 40.0002C45.445 40.7958 45.7611 41.5589 46.3237 42.1215C46.8863 42.6841 47.6493 43.0002 48.445 43.0002H54.445C55.2406 43.0002 56.0037 42.6841 56.5663 42.1215C57.1289 41.5589 57.445 40.7958 57.445 40.0002C57.445 39.2045 57.1289 38.4414 56.5663 37.8788C56.0037 37.3162 55.2406 37.0002 54.445 37.0002ZM10.445 27.0002H16.445C17.2406 27.0002 18.0037 26.6841 18.5663 26.1215C19.1289 25.5589 19.445 24.7958 19.445 24.0002C19.445 23.2045 19.1289 22.4414 18.5663 21.8788C18.0037 21.3162 17.2406 21.0002 16.445 21.0002H10.445C9.64933 21.0002 8.88627 21.3162 8.32366 21.8788C7.76105 22.4414 7.44498 23.2045 7.44498 24.0002C7.44498 24.7958 7.76105 25.5589 8.32366 26.1215C8.88627 26.6841 9.64933 27.0002 10.445 27.0002ZM40.445 45.0002C39.6493 45.0002 38.8863 45.3162 38.3237 45.8788C37.7611 46.4414 37.445 47.2045 37.445 48.0002V54.0002C37.445 54.7958 37.7611 55.5589 38.3237 56.1215C38.8863 56.6841 39.6493 57.0002 40.445 57.0002C41.2406 57.0002 42.0037 56.6841 42.5663 56.1215C43.1289 55.5589 43.445 54.7958 43.445 54.0002V48.0002C43.445 47.2045 43.1289 46.4414 42.5663 45.8788C42.0037 45.3162 41.2406 45.0002 40.445 45.0002ZM24.445 19.0002C25.2406 19.0002 26.0037 18.6841 26.5663 18.1215C27.1289 17.5589 27.445 16.7958 27.445 16.0002V10.0002C27.445 9.20451 27.1289 8.44145 26.5663 7.87884C26.0037 7.31623 25.2406 7.00016 24.445 7.00016C23.6493 7.00016 22.8863 7.31623 22.3237 7.87884C21.7611 8.44145 21.445 9.20451 21.445 10.0002V16.0002C21.445 16.7958 21.7611 17.5589 22.3237 18.1215C22.8863 18.6841 23.6493 19.0002 24.445 19.0002Z" fill="black"/>
</svg>
